<svg width="32" height="32" viewBox="0 0 32 32" fill="none" xmlns="http://www.w3.org/2000/svg">
<path fill-rule="evenodd" clip-rule="evenodd" d="M25.58 15.739C25.58 14.9945 25.5132 14.2786 25.3891 13.5913H15.5V17.6529H21.1509C20.9075 18.9654 20.1677 20.0774 19.0557 20.822V23.4565H22.4491C24.4345 21.6286 25.58 18.9368 25.58 15.739Z" fill="#4285F4"/>
<path fill-rule="evenodd" clip-rule="evenodd" d="M15.4994 26.0001C18.3344 26.0001 20.7112 25.0599 22.4485 23.4563L19.0551 20.8217C18.1148 21.4517 16.9121 21.824 15.4994 21.824C12.7646 21.824 10.4498 19.9769 9.62417 17.4951H6.11621V20.2156C7.84394 23.6472 11.3948 26.0001 15.4994 26.0001Z" fill="#34A853"/>
<path fill-rule="evenodd" clip-rule="evenodd" d="M9.62477 17.4951C9.41477 16.8651 9.29545 16.1922 9.29545 15.5001C9.29545 14.8081 9.41477 14.1351 9.62477 13.5051V10.7847H6.11682C5.40568 12.2022 5 13.8058 5 15.5001C5 17.1944 5.40568 18.7981 6.11682 20.2156L9.62477 17.4951Z" fill="#FBBC05"/>
<path fill-rule="evenodd" clip-rule="evenodd" d="M15.4994 9.17614C17.041 9.17614 18.4251 9.70591 19.5133 10.7464L22.5248 7.73477C20.7064 6.04045 18.3296 5 15.4994 5C11.3948 5 7.84394 7.35295 6.11621 10.7845L9.62417 13.505C10.4498 11.0232 12.7646 9.17614 15.4994 9.17614Z" fill="#EA4335"/>
</svg>
