<svg width="32" height="32" viewBox="0 0 32 32" fill="none" xmlns="http://www.w3.org/2000/svg">
<path d="M14.899 14.1318C14.4145 14.1318 14.032 14.5568 14.032 15.0753C14.032 15.5938 14.423 16.0188 14.899 16.0188C15.3835 16.0188 15.766 15.5938 15.766 15.0753C15.7745 14.5568 15.3835 14.1318 14.899 14.1318ZM18.0015 14.1318C17.517 14.1318 17.1345 14.5568 17.1345 15.0753C17.1345 15.5938 17.5255 16.0188 18.0015 16.0188C18.486 16.0188 18.8685 15.5938 18.8685 15.0753C18.8685 14.5568 18.486 14.1318 18.0015 14.1318Z" fill="white"/>
<path d="M22.1325 7H10.7425C9.782 7 9 7.782 9 8.751V20.243C9 21.212 9.782 21.994 10.7425 21.994H20.3815L19.931 20.4215L21.019 21.433L22.0475 22.385L23.875 24V8.751C23.875 7.782 23.093 7 22.1325 7ZM18.8515 18.101C18.8515 18.101 18.5455 17.7355 18.2905 17.4125C19.404 17.098 19.829 16.401 19.829 16.401C19.4805 16.6305 19.149 16.792 18.8515 16.9025C18.4265 17.081 18.0185 17.2 17.619 17.268C16.891 17.402 16.1444 17.3992 15.4175 17.2595C14.9907 17.176 14.5725 17.0537 14.168 16.894C13.9548 16.812 13.7475 16.7154 13.5475 16.605C13.522 16.588 13.4965 16.5795 13.471 16.5625C13.454 16.554 13.4455 16.5455 13.437 16.537C13.284 16.452 13.199 16.3925 13.199 16.3925C13.199 16.3925 13.607 17.0725 14.6865 17.3955C14.4315 17.7185 14.117 18.101 14.117 18.101C12.2385 18.0415 11.5245 16.809 11.5245 16.809C11.5245 14.072 12.7485 11.8535 12.7485 11.8535C13.9725 10.9355 15.137 10.961 15.137 10.961L15.222 11.063C13.692 11.505 12.9865 12.1765 12.9865 12.1765C12.9865 12.1765 13.1735 12.0745 13.488 11.93C14.3975 11.5305 15.12 11.42 15.4175 11.3945C15.4685 11.386 15.511 11.3775 15.562 11.3775C17.036 11.178 18.535 11.4581 19.8375 12.1765C19.8375 12.1765 19.166 11.539 17.721 11.097L17.84 10.961C17.84 10.961 19.0045 10.9355 20.2285 11.8535C20.2285 11.8535 21.4525 14.072 21.4525 16.809C21.4525 16.809 20.73 18.0415 18.8515 18.101V18.101Z" fill="white"/>
</svg>
