<svg width="32" height="32" viewBox="0 0 32 32" fill="none" xmlns="http://www.w3.org/2000/svg">
<path d="M22.8849 7.89992H9.1149C8.4669 7.89992 7.8999 8.38833 7.8999 9.03959V22.9602C7.8999 23.6115 8.4669 24.0999 9.1149 24.0999H22.8849C23.5329 24.0999 24.0999 23.6115 24.0999 22.9602V9.03959C24.0999 8.46974 23.5329 7.89992 22.8849 7.89992ZM12.6789 21.8205H10.2489V14.0868H12.6789V21.8205ZM11.4639 12.9471C10.6539 12.9471 10.0869 12.2959 10.0869 11.5632C10.0869 10.8306 10.7349 10.1793 11.4639 10.1793C12.1929 10.1793 12.8409 10.8306 12.8409 11.5632C12.9219 12.3773 12.2739 12.9471 11.4639 12.9471ZM21.6699 21.8205H19.2399V18.0758C19.2399 17.1803 19.2399 16.0406 18.0249 16.0406C16.8099 16.0406 16.5669 17.0175 16.5669 18.0758V21.9019H14.1369V14.1682H16.4049V15.2266C16.7289 14.5753 17.5389 14.0055 18.6729 14.0055C21.1029 14.0055 21.5889 15.6336 21.5889 17.6688V21.8205H21.6699Z" fill="white"/>
</svg>
