<svg width="32" height="32" viewBox="0 0 32 32" fill="none" xmlns="http://www.w3.org/2000/svg">
<path fill-rule="evenodd" clip-rule="evenodd" d="M17.44 9.70039C14.7559 9.70039 12.58 11.8763 12.58 14.5604C12.58 15.9205 13.1375 17.1487 14.0388 18.0319C14.9162 18.8917 16.1155 19.4204 17.44 19.4204C20.1241 19.4204 22.3 17.2445 22.3 14.5604C22.3 11.8763 20.1241 9.70039 17.44 9.70039ZM10.78 14.5604C10.78 10.8822 13.7618 7.90039 17.44 7.90039C21.1182 7.90039 24.1 10.8822 24.1 14.5604C24.1 18.2386 21.1182 21.2204 17.44 21.2204C15.9444 21.2204 14.5629 20.7266 13.4514 19.8943L9.43059 23.8426L8.16943 22.5582L12.1686 18.6312C11.2986 17.5059 10.78 16.0932 10.78 14.5604Z" fill="white"/>
</svg>
