<svg width="108" height="32" viewBox="0 0 108 32" fill="none" xmlns="http://www.w3.org/2000/svg">
<path d="M4 14.5C3.17157 14.5 2.5 15.1716 2.5 16C2.5 16.8284 3.17157 17.5 4 17.5V14.5ZM105.061 17.0607C105.646 16.4749 105.646 15.5251 105.061 14.9393L95.5147 5.3934C94.9289 4.80761 93.9792 4.80761 93.3934 5.3934C92.8076 5.97918 92.8076 6.92893 93.3934 7.51472L101.879 16L93.3934 24.4853C92.8076 25.0711 92.8076 26.0208 93.3934 26.6066C93.9792 27.1924 94.9289 27.1924 95.5147 26.6066L105.061 17.0607ZM4 17.5H104V14.5H4V17.5Z" fill="#C56510"/>
</svg>
