<svg width="32" height="32" viewBox="0 0 32 32" fill="none" xmlns="http://www.w3.org/2000/svg">
<path d="M12 13.3335H2.66671C2.31309 13.3335 1.97395 13.193 1.7239 12.943C1.47385 12.6929 1.33337 12.3538 1.33337 12.0002V2.66683C1.33337 2.31321 1.47385 1.97407 1.7239 1.72402C1.97395 1.47397 2.31309 1.3335 2.66671 1.3335H12C12.3537 1.3335 12.6928 1.47397 12.9429 1.72402C13.1929 1.97407 13.3334 2.31321 13.3334 2.66683V12.0002C13.3334 12.3538 13.1929 12.6929 12.9429 12.943C12.6928 13.193 12.3537 13.3335 12 13.3335Z" fill="#FFAB00"/>
<path d="M12 30.667H2.66671C2.31309 30.667 1.97395 30.5265 1.7239 30.2765C1.47385 30.0264 1.33337 29.6873 1.33337 29.3337V20.0003C1.33337 19.6467 1.47385 19.3076 1.7239 19.0575C1.97395 18.8075 2.31309 18.667 2.66671 18.667H12C12.3537 18.667 12.6928 18.8075 12.9429 19.0575C13.1929 19.3076 13.3334 19.6467 13.3334 20.0003V29.3337C13.3334 29.6873 13.1929 30.0264 12.9429 30.2765C12.6928 30.5265 12.3537 30.667 12 30.667Z" fill="#FFAB00"/>
<path d="M17.3334 2.66699H30.6667V5.33366H17.3334V2.66699Z" fill="#3A7CA5"/>
<path d="M30.6667 20H17.3334V22.6667H30.6667V20Z" fill="#3A7CA5"/>
<path d="M30.6667 26.667H17.3334V29.3337H30.6667V26.667Z" fill="#81C3D7"/>
<path d="M30.6667 9.3335H17.3334V12.0002H30.6667V9.3335Z" fill="#81C3D7"/>
</svg>
