<svg width="32" height="32" viewBox="0 0 32 32" fill="none" xmlns="http://www.w3.org/2000/svg">
<path d="M30 11C31.1046 11 32 11.8954 32 13V27C32 28.1046 31.1046 29 30 29L14 29C12.8954 29 12 28.1046 12 27V13C12 11.8954 12.8954 11 14 11L30 11Z" fill="#81C3D7"/>
<path d="M8 11C9.10457 11 10 11.8954 10 13L10 27C10 28.1046 9.10457 29 8 29H2C0.89543 29 0 28.1046 0 27L0 13C0 11.8954 0.895431 11 2 11H8Z" fill="#3A7CA5"/>
<rect x="32" width="9" height="32" rx="2" transform="rotate(90 32 0)" fill="#FFAB00"/>
</svg>
