<svg width="96" height="96" viewBox="0 0 96 96" fill="none" xmlns="http://www.w3.org/2000/svg">
<path d="M63 63L48 48L33 63" stroke="#262626" stroke-width="10" stroke-linecap="round" stroke-linejoin="round"/>
<path d="M48 48V81" stroke="#262626" stroke-width="10" stroke-linecap="round" stroke-linejoin="round"/>
<path d="M78.4035 71C81.9942 69.0649 84.8307 66.0028 86.4655 62.2971C88.1002 58.5913 88.44 54.4529 87.4312 50.535C86.4225 46.6172 84.1226 43.143 80.8946 40.6607C77.6667 38.1785 73.6944 36.8296 69.6048 36.8269H64.9661C63.8518 32.5662 61.7748 28.6106 58.8915 25.2575C56.0081 21.9045 52.3933 19.2412 48.3188 17.468C44.2444 15.6948 39.8163 14.8577 35.3674 15.0197C30.9186 15.1818 26.5648 16.3387 22.6334 18.4035C18.702 20.4683 15.2953 23.3873 12.6693 26.941C10.0433 30.4947 8.26651 34.5907 7.47237 38.9209C6.67824 43.2512 6.88748 47.7031 8.08436 51.9419C9.28124 56.1807 11.4346 60.0961 14.3826 63.3938" stroke="#262626" stroke-width="10" stroke-linecap="round" stroke-linejoin="round"/>
<path d="M63 63L48 48L33 63" stroke="#262626" stroke-width="10" stroke-linecap="round" stroke-linejoin="round"/>
</svg>
